HIERARCHY
ROOT pelvis
{
  OFFSET 0 100 0
  CHANNELS 6 Xposition Yposition Zposition Zrotation Xrotation Yrotation
  JOINT pelvis_right_femur
  {
    OFFSET -10.78128 -3.44521 -0.5502486
    CHANNELS 3 Zrotation Xrotation Yrotation
    JOINT right_femur_tibia
    {
      OFFSET -0.8047443 -44.0398 -0.1307829
      CHANNELS 3 Zrotation Xrotation Yrotation
      JOINT right_tibia_foot
      {
        OFFSET 3.006224 -47.83518 -5
        CHANNELS 3 Zrotation Xrotation Yrotation
        End Site
        {
          OFFSET 0 -5 15
        }
      }
    }
  }
  JOINT pelvis_left_femur
  {
    OFFSET 10.78128 -3.44521 -0.5502486
    CHANNELS 3 Zrotation Xrotation Yrotation
    JOINT left_femur_tibia
    {
      OFFSET 0.8047443 -44.0398 -0.1307829
      CHANNELS 3 Zrotation Xrotation Yrotation
      JOINT left_tibia_foot
      {
        OFFSET -4.370144 -48.10324 -4.275266
        CHANNELS 3 Zrotation Xrotation Yrotation
        End Site
        {
          OFFSET 0 -5 15
        }
      }
    }
  }
  JOINT pelvis_spine1
  {
    OFFSET 0 6.468898 -3.129235
    CHANNELS 3 Zrotation Xrotation Yrotation
    JOINT spine1
    {
      OFFSET 0 23.15396 4.99043
      CHANNELS 3 Zrotation Xrotation Yrotation
      JOINT spine2
      {
        OFFSET 0 20.79997 -5.064912
        CHANNELS 3 Zrotation Xrotation Yrotation
        JOINT neck
        {
          OFFSET 0 14.38658 9.616178
          CHANNELS 3 Zrotation Xrotation Yrotation
          End Site
          {
            OFFSET 0 20 0
          }
        }
      }
      JOINT right_manubrium
      {
        OFFSET -5.722621 16.35077 3.967754
        CHANNELS 3 Zrotation Xrotation Yrotation
        JOINT right_clavicle
        {
          OFFSET -13.16364 1.694482 -4.693211
          CHANNELS 3 Zrotation Xrotation Yrotation
          JOINT right_humerus
          {
            OFFSET -28.5034 -0.3100689 -2.792744
            CHANNELS 3 Zrotation Xrotation Yrotation
            JOINT right_radius
            {
              OFFSET -25.15693 0.02248979 -1.271978
              CHANNELS 3 Zrotation Xrotation Yrotation
              End Site
              {
                OFFSET -15 0 0
              }
            }
          }
        }
      }
      JOINT left_manubrium
      {
        OFFSET 5.722621 16.35077 3.967754
        CHANNELS 3 Zrotation Xrotation Yrotation
        JOINT left_clavicle
        {
          OFFSET 13.16364 1.694482 -4.693211
          CHANNELS 3 Zrotation Xrotation Yrotation
          JOINT left_humerus
          {
            OFFSET 29.39168 -1.063119 -2.237045
            CHANNELS 3 Zrotation Xrotation Yrotation
            JOINT left_radius
            {
              OFFSET 24.59957 -0.9528479 0.9047498
              CHANNELS 3 Zrotation Xrotation Yrotation
              End Site
              {
                OFFSET 15 -0 -0
              }
            }
          }
        }
      }
    }
  }
}
MOTION
Frames: 18
Frame Time: 0.0416666666667
0 103.5113 0 1.246171 -1.855984 0.8065618 0.9836639 -15.86291 6.769157 1.79923e-09 43.12088 -1.024786e-09 -0.4269607 -8.05024 -4.881092 -6.910986 7.413218 -17.29017 -2.141176e-09 5.160076 3.261527e-10 1.738866 -18.15488 20.67241 -3.95638 -0.7872448 3.857646 1.287366 7.937179 -6.526755 1.771979 21.99165 7.349643 2.947646 -21.05715 9.450673 5.804397 -16.89696 10.3097 84.12526 34.89704 -15.16457 9.750908e-10 6.082454e-10 15.21121 -14.06699 11.09823 8.864574 4.95994 -16.66853 -2.005862 -89.45608 28.54521 16.60367 -1.303689e-10 3.296818e-10 -16.76592 1.292452 11.01824 13.39205
0.5953459 103.4815 3.845271 1.284011 -1.642864 1.627293 0.9500418 -17.41911 6.845202 1.95865e-09 44.00102 -1.127867e-09 -0.3578991 -7.860972 -5.055344 -7.076422 8.873535 -17.74468 -2.285675e-09 4.223094 4.193845e-10 1.883678 -18.87165 20.76722 -4.078782 -0.8172704 3.68201 1.370432 7.854225 -6.712462 1.755826 22.08249 7.491731 3.003637 -21.27353 9.612296 5.992699 -16.72552 10.30002 84.8603 35.2827 -15.89824 9.868566e-10 6.080266e-10 14.92516 -13.79885 11.08539 8.708341 5.066622 -16.80171 -1.974831 -89.70256 28.91606 16.28586 -1.338065e-10 3.401138e-10 -17.27069 1.248913 11.14281 13.55164
1.206982 103.4465 7.650451 1.282185 -1.470816 2.480773 1.026584 -19.15893 6.783818 2.045628e-09 44.08077 -1.177527e-09 -0.4456897 -7.533976 -5.214105 -7.15834 10.48453 -18.01697 -2.36251e-09 3.948162 5.364602e-10 2.004474 -19.45593 20.69065 -4.123816 -0.8513882 3.477702 1.473485 7.825836 -6.921656 1.734242 22.1283 7.586328 3.051044 -21.44741 9.704525 6.074352 -16.49766 10.28997 85.58579 35.45317 -16.77316 9.5125e-10 5.741064e-10 14.40773 -13.51928 11.0576 8.473557 5.194105 -17.06502 -2.023263 -89.6035 29.07999 15.71273 -1.316262e-10 3.35557e-10 -17.9483 1.411309 11.31717 13.39703
1.812229 103.4067 11.44422 1.24034 -1.354665 3.33877 1.219614 -21.02958 6.587548 2.047016e-09 43.30531 -1.163655e-09 -0.7004274 -7.082787 -5.351978 -7.156245 12.18636 -18.09162 -2.364059e-09 4.437856 6.74741e-10 2.09102 -19.87938 20.44429 -4.084267 -0.8889881 3.25625 1.595969 7.865254 -7.152905 1.708391 22.14166 7.63034 3.090512 -21.58456 9.724846 6.042751 -16.23173 10.29107 86.34781 35.39456 -17.79393 8.657042e-10 5.064466e-10 13.67386 -13.25289 11.02482 8.17189 5.3414 -17.47343 -2.156557 -89.22209 29.0146 14.92043 -1.237768e-10 3.148724e-10 -18.80035 1.791875 11.54336 12.91855
2.389312 103.3642 15.25113 1.161731 -1.291777 4.17253 1.513518 -22.95724 6.271663 1.966786e-09 41.68264 -1.090456e-09 -1.100516 -6.526755 -5.461019 -7.076258 13.9151 -17.95937 -2.293237e-09 5.65983 8.247085e-10 2.127991 -20.1165 20.01398 -3.960632 -0.9271774 3.021882 1.732949 7.957013 -7.392119 1.679275 22.09844 7.616749 3.115162 -21.66017 9.664557 5.900038 -15.91518 10.29041 86.99765 35.11052 -18.86708 7.341801e-10 4.098609e-10 12.73724 -12.98547 10.97932 7.801294 5.495826 -17.98759 -2.362181 -88.4779 28.71952 13.89998 -1.112254e-10 2.789635e-10 -19.77968 2.364808 11.79 12.13934
2.925195 103.3225 19.09502 1.059907 -1.279988 4.95724 1.875795 -24.74912 5.897862 1.827358e-09 39.44214 -9.787833e-10 -1.584749 -5.95459 -5.538038 -6.940828 15.48871 -17.65539 -2.163309e-09 7.490795 9.601354e-10 2.103433 -20.15833 19.45925 -3.772324 -0.9604369 2.804398 1.872489 8.087139 -7.618566 1.65089 22.01538 7.554505 3.125304 -21.68053 9.54094 5.680117 -15.58407 10.2937 87.51129 34.67036 -19.89738 5.752368e-10 2.994284e-10 11.71459 -12.74275 10.93665 7.404598 5.639716 -18.54976 -2.60851 -87.52999 28.24926 12.79483 -9.628985e-11 2.3272e-10 -20.79178 3.044865 12.01917 11.18729
3.413373 103.288 22.99859 0.9462142 -1.305172 5.673347 2.287652 -26.31582 5.534711 1.654774e-09 36.83118 -8.512115e-10 -2.091357 -5.452204 -5.596572 -6.773739 16.81457 -17.23563 -1.989212e-09 9.820187 1.056667e-09 2.007916 -20.03354 18.84325 -3.542773 -0.9838868 2.625579 2.010109 8.241167 -7.826743 1.626516 21.9211 7.461572 3.126237 -21.67143 9.382073 5.429286 -15.26535 10.31034 87.95464 34.16693 -20.86554 4.080358e-10 1.886079e-10 10.70102 -12.53657 10.91899 7.013614 5.764066 -19.12102 -2.863895 -86.57282 27.68862 11.72899 -8.113088e-11 1.811009e-10 -21.79129 3.74468 12.20603 10.20235
3.858992 103.2684 26.98094 0.8378731 -1.351157 6.310851 2.715856 -27.50333 5.26762 1.478282e-09 34.23896 -7.308531e-10 -2.536212 -5.129426 -5.652014 -6.602829 17.74496 -16.78206 -1.791975e-09 12.42393 1.087154e-09 1.840078 -19.78544 18.26773 -3.307957 -0.9917464 2.516204 2.135457 8.400774 -8.004266 1.610714 21.85747 7.363461 3.125276 -21.66758 9.22788 5.207769 -15.00746 10.35245 88.41831 33.71853 -21.72828 2.606541e-10 9.473946e-11 9.844022 -12.39394 10.95325 6.682158 5.857393 -19.64292 -3.085857 -85.87238 27.16533 10.88065 -6.831521e-11 1.317036e-10 -22.69332 4.343359 12.32892 9.375162
4.276119 103.2759 31.05929 0.7457995 -1.4007 6.862672 3.15094 -28.09651 5.190008 1.307633e-09 31.90997 -6.260637e-10 -2.82957 -5.129067 -5.722913 -6.43572 18.06246 -16.33232 -1.571223e-09 15.25612 1.007539e-09 1.559373 -19.39865 17.79388 -3.089569 -0.9719031 2.515991 2.238717 8.542762 -8.131107 1.609652 21.84474 7.272804 3.123174 -21.68152 9.102411 5.071412 -14.83952 10.42468 88.89985 33.43797 -22.40677 1.622944e-10 3.382428e-11 9.278008 -12.32763 11.07151 6.450825 5.899403 -20.0413 -3.227126 -85.59638 26.80238 10.38636 -5.997969e-11 9.070044e-11 -23.4091 4.705205 12.34569 8.904155
4.683317 103.3223 35.23999 0.6759111 -1.442969 7.3257 3.565718 -27.97967 5.317306 1.147503e-09 29.97056 -5.388227e-10 -2.930313 -5.484355 -5.806515 -6.270634 17.67462 -15.89581 -1.325985e-09 18.16454 8.039417e-10 1.160659 -18.86287 17.43613 -2.8993 -0.9200023 2.631963 2.309314 8.6436 -8.186237 1.624859 21.86093 7.187847 3.113729 -21.68935 9.004894 5.033858 -14.75685 10.50986 89.24793 33.36027 -22.79369 1.258684e-10 1.160133e-11 9.050463 -12.32538 11.26489 6.329703 5.876862 -20.253 -3.265574 -85.67144 26.63833 10.25606 -5.667521e-11 6.150013e-11 -23.85637 4.770664 12.23236 8.855102
5.096153 103.4185 39.55336 0.6203833 -1.51811 7.680432 4.006948 -27.00592 5.621447 9.628644e-10 28.11241 -4.495651e-10 -2.887376 -6.230493 -5.890475 -6.065519 16.41181 -15.38142 -9.979084e-10 21.58869 4.426246e-10 0.6103673 -18.05817 17.17412 -2.70204 -0.830907 2.895842 2.348111 8.746354 -8.166059 1.65912 21.92832 7.089607 3.096709 -21.69432 8.914669 5.061381 -14.79714 10.6364 89.57426 33.41966 -22.92499 1.403338e-10 2.113355e-11 9.168927 -12.44904 11.56478 6.336702 5.787277 -20.33094 -3.225927 -86.19454 26.59861 10.54925 -5.669066e-11 3.866782e-11 -24.06162 4.592178 11.9946 9.166422
5.510736 103.5858 44.0354 0.552237 -1.62315 7.888078 4.537742 -25.27052 6.058468 7.22624e-10 25.75716 -3.431702e-10 -2.746215 -7.350756 -5.977715 -5.760617 14.33777 -14.6557 -5.012885e-10 26.06371 -1.310532e-10 -0.1613297 -16.86188 16.85525 -2.445912 -0.695958 3.292341 2.371528 8.847025 -8.077124 1.711082 21.97143 6.939143 3.056207 -21.63473 8.776515 5.113414 -14.8643 10.77972 89.64407 33.54736 -22.80507 1.853447e-10 5.0124e-11 9.467587 -12.62428 11.96202 6.387622 5.623808 -20.29427 -3.126359 -86.78705 26.57542 11.03537 -5.836285e-11 1.354537e-11 -24.12183 4.229182 11.59102 9.72133
5.924239 103.8379 48.74198 0.4734538 -1.815161 7.901916 5.147153 -22.60117 6.546295 4.120715e-10 22.77398 -2.186273e-10 -2.574246 -8.816577 -6.03155 -5.305676 11.29591 -13.65635 2.529373e-10 31.73222 -9.765478e-10 -1.118088 -15.19468 16.52622 -2.111234 -0.5178923 3.84483 2.369539 8.998989 -7.908434 1.781542 22.02662 6.723809 2.995531 -21.51937 8.577323 5.14006 -15.03476 10.97168 89.59411 33.64084 -22.43412 2.462879e-10 9.140815e-11 9.988975 -12.95208 12.46748 6.532878 5.38991 -20.20086 -3.004255 -87.60198 26.46745 11.82736 -5.978776e-11 -1.758479e-11 -24.01074 3.77061 11.05718 10.41054
6.342153 104.1761 53.68416 0.4063727 -2.095885 7.703513 5.669594 -19.01047 6.952757 7.448617e-11 19.65891 -9.890699e-11 -2.380556 -10.40896 -5.985319 -4.709365 7.431237 -12.45978 1.232637e-09 37.52073 -2.048678e-09 -2.095123 -13.19082 16.26052 -1.746072 -0.3189255 4.492383 2.308414 9.167541 -7.621412 1.861331 22.02983 6.446201 2.905772 -21.28375 8.311682 5.098053 -15.31117 11.15622 89.04605 33.62178 -21.5625 3.192097e-10 1.440096e-10 10.74724 -13.42347 12.96828 6.795462 5.08877 -19.96588 -2.8701 -88.3172 26.21812 12.85688 -6.015503e-11 -4.784074e-11 -23.52694 3.267213 10.43225 11.10892
6.770475 104.5887 58.85677 0.3602322 -2.467593 7.297354 6.046637 -14.83876 7.197539 -2.583695e-10 16.79005 5.245517e-12 -2.224502 -11.9122 -5.824447 -4.005811 3.128246 -11.18176 2.366926e-09 42.74196 -3.253165e-09 -2.947474 -11.074 16.1352 -1.389864 -0.1271475 5.171493 2.187757 9.368576 -7.246385 1.941071 22.01898 6.139437 2.804399 -20.97614 8.013972 4.967168 -15.72355 11.33631 88.22443 33.42535 -20.32027 3.874695e-10 1.982052e-10 11.69544 -14.05828 13.41016 7.188133 4.763047 -19.6602 -2.763092 -89.00728 25.80655 14.09696 -5.816476e-11 -7.486177e-11 -22.71073 2.830612 9.829507 11.67558
7.225538 105.0484 64.21083 0.3571231 -2.907933 6.726002 6.165201 -10.34606 7.237294 -5.389689e-10 14.85119 8.646065e-11 -2.103614 -13.0989 -5.520167 -3.285332 -1.260312 -9.995494 3.379018e-09 46.22118 -4.312798e-09 -3.515576 -9.11492 16.22428 -1.111595 0.02597728 5.805682 1.989643 9.568023 -6.782932 2.010199 21.98151 5.838802 2.698467 -20.59911 7.719645 4.74377 -16.27757 11.47299 87.05379 33.02466 -18.65266 4.506529e-10 2.53997e-10 12.83309 -14.83231 13.69541 7.724538 4.439233 -19.24669 -2.689879 -89.55668 25.26286 15.49913 -5.39954e-11 -8.973802e-11 -21.46419 2.495331 9.329784 12.03981
7.721333 105.5174 69.67134 0.3957666 -3.385977 6.052882 6.021869 -6.021048 7.042725 -7.414188e-10 14.05152 1.483201e-10 -2.065581 -13.74976 -5.081351 -2.644164 -5.224387 -9.018142 3.94698e-09 47.38063 -4.886138e-09 -3.702314 -7.530873 16.48289 -0.9384513 0.1134943 6.307514 1.72646 9.746487 -6.269593 2.057197 21.89555 5.567086 2.595216 -20.16393 7.444422 4.413187 -16.9128 11.53434 85.56718 32.36665 -16.69428 4.914687e-10 2.987738e-10 14.00972 -15.66431 13.75391 8.341389 4.155784 -18.76713 -2.67785 -89.7586 24.5904 16.86783 -4.723279e-11 -9.153402e-11 -19.87948 2.34669 9.012202 12.06605
8.290016 105.9471 75.16254 0.4943005 -3.90542 5.357906 5.591912 -1.912941 6.657636 -8.495727e-10 14.80247 1.963115e-10 -2.106258 -13.83551 -4.510688 -2.181437 -8.705861 -8.386782 3.84623e-09 45.81265 -4.757681e-09 -3.454104 -6.45358 16.99486 -0.9076563 0.1214843 6.674228 1.392639 9.914812 -5.717466 2.082041 21.82826 5.35822 2.509454 -19.73337 7.233211 3.999582 -17.69605 11.54159 84.05739 31.48264 -14.53806 5.173841e-10 3.371964e-10 15.30883 -16.60329 13.58416 9.086623 3.931105 -18.24376 -2.727408 -89.9124 23.84421 18.3424 -3.931375e-11 -7.492697e-11 -17.93852 2.37745 8.93114 11.79845
